<svg xmlns="http://www.w3.org/2000/svg" viewBox="0 0 22.5 30"><g transform="translate(-64)"><g transform="translate(64)"><path d="M75.25,0C69.048,0,64,6.729,64,15s5.048,15,11.25,15S86.5,23.271,86.5,15,81.452,0,75.25,0Zm0,28.75c-5.514,0-10-6.169-10-13.75s4.486-13.75,10-13.75,10,6.169,10,13.75S80.764,28.75,75.25,28.75Z" transform="translate(-64)"/></g><g transform="translate(66.5 2.5)"><path d="M115.417,42.667c-4.743,0-8.75,5.725-8.75,12.5s4.007,12.5,8.75,12.5,8.75-5.725,8.75-12.5S120.16,42.667,115.417,42.667Zm0,23.75c-4.065,0-7.5-5.152-7.5-11.25s3.435-11.25,7.5-11.25,7.5,5.153,7.5,11.25S119.482,66.417,115.417,66.417Z" transform="translate(-106.667 -42.667)"/></g><g transform="translate(70.25 7.501)"><path d="M174.228,128.2a.625.625,0,0,0-.884,0l-2.5,2.5a.625.625,0,0,0,.884.884l2.5-2.5A.625.625,0,0,0,174.228,128.2Z" transform="translate(-170.661 -128.016)"/></g><g transform="translate(70.25 7.501)"><path d="M177.978,128.2a.625.625,0,0,0-.884,0l-6.25,6.25a.625.625,0,0,0,.884.884l6.25-6.25A.625.625,0,0,0,177.978,128.2Z" transform="translate(-170.661 -128.016)"/></g><g transform="translate(76.5 18.751)"><path d="M280.894,320.2a.625.625,0,0,0-.884,0l-2.5,2.5a.625.625,0,0,0,.884.884l2.5-2.5A.625.625,0,0,0,280.894,320.2Z" transform="translate(-277.327 -320.016)"/></g><g transform="translate(72.75 15.001)"><path d="M220.645,256.2a.625.625,0,0,0-.884,0l-6.25,6.25a.625.625,0,0,0,.884.884l6.25-6.25A.625.625,0,0,0,220.645,256.2Z" transform="translate(-213.328 -256.016)"/></g></g></svg>