<svg xmlns="http://www.w3.org/2000/svg" viewBox="0 0 33.869 30.6"><defs><style>.a,.b,.c,.e{fill:#4ab6b6;}.a,.c{stroke:#4ab6b6;}.a{stroke-width:0.8px;}.c{stroke-width:0.6px;}.d,.e{stroke:none;}</style></defs><g transform="translate(-446.004 -957.506)"><path class="a" d="M20.059,35.135l-9.7-8.325a.405.405,0,0,0-.527,0l-9.7,8.325a.4.4,0,0,0-.114.441.4.4,0,0,0,.377.259H2.841v8.407a.4.4,0,0,0,.4.4H16.956a.4.4,0,0,0,.4-.4V35.835H19.8a.4.4,0,0,0,.377-.259A.4.4,0,0,0,20.059,35.135Zm-3.1-.1a.4.4,0,0,0-.4.4v8.407H3.645V35.436a.4.4,0,0,0-.4-.4H1.482l8.618-7.4,8.618,7.4Z" transform="translate(452.829 935.923)"/><g class="b" transform="translate(460.024 971.115)"><path class="d" d="M 5.60830020904541 5.554300308227539 L 0.5000001192092896 5.554300308227539 L 0.5000001192092896 0.5000001788139343 L 5.60830020904541 0.5000001788139343 L 5.60830020904541 5.554300308227539 Z M 0.7213001251220703 0.7717001438140869 L 0.7213001251220703 1.271700143814087 L 0.7213001251220703 4.857300281524658 L 0.7213001251220703 5.357300281524658 L 1.22130012512207 5.357300281524658 L 4.913100242614746 5.357300281524658 L 5.413100242614746 5.357300281524658 L 5.413100242614746 4.857300281524658 L 5.413100242614746 1.271700143814087 L 5.413100242614746 0.7717001438140869 L 4.913100242614746 0.7717001438140869 L 1.22130012512207 0.7717001438140869 L 0.7213001251220703 0.7717001438140869 Z"/><path class="e" d="M 6.10830020904541 6.054300308227539 L 6.107300281524658 6.054300308227539 L 1.045227051577058e-07 6.054300308227539 L 1.045227051577058e-07 1.54113763528585e-07 L 6.10830020904541 1.54113763528585e-07 L 6.10830020904541 6.053300380706787 L 6.10830020904541 6.054300308227539 Z M 1.22130012512207 1.271700143814087 L 1.22130012512207 4.857300281524658 L 4.913100242614746 4.857300281524658 L 4.913100242614746 1.271700143814087 L 1.22130012512207 1.271700143814087 Z"/></g><path class="c" d="M15.943,29.979A15.184,15.184,0,0,1,1.609,16.3v-.068l.155-2.943L.607,14.433,0,13.937l1.988-2.16.692.035,1.75,2.608-.769.331-.918-1.42-.154,2.911a14.244,14.244,0,0,0,23.654,9.17l.657.721A15.16,15.16,0,0,1,16.754,30Q16.349,30,15.943,29.979Zm12.6-15.252.745-.383L30.307,15.7l-.052-2.914A14.253,14.253,0,0,0,6.013,5.27L5.308,4.6a15.236,15.236,0,0,1,25.921,8.067l.006.068.053,2.947,1.073-1.226L33,14.9,31.17,17.2l-.693.011Z" transform="translate(446.44 957.806)"/></g></svg>