<svg xmlns="http://www.w3.org/2000/svg" viewBox="0 0 25 30"><g transform="translate(-40.851)"><g transform="translate(40.851)"><path d="M65.376,9.255H58.889V7.632a.479.479,0,0,0-.158-.93H56.2a.479.479,0,0,0-.158.93V9.255H52.876V3.511a2.532,2.532,0,1,1,5.063,0v.266H56.99V3.511a1.582,1.582,0,1,0-3.165,0V7.819a.475.475,0,1,0,.949,0V3.511a.633.633,0,1,1,1.266,0v.745a.477.477,0,0,0,.475.479h1.9a.477.477,0,0,0,.475-.479V3.511a3.481,3.481,0,1,0-6.962,0V9.255H50.661V7.632A.479.479,0,0,0,50.5,6.7H47.971a.479.479,0,0,0-.158.93V9.255H41.326a.477.477,0,0,0-.475.479,8.119,8.119,0,0,0,7.619,8.125l.51,9.775A2.515,2.515,0,0,0,51.452,30h3.8a2.515,2.515,0,0,0,2.473-2.366l.51-9.775a8.119,8.119,0,0,0,7.619-8.125A.477.477,0,0,0,65.376,9.255ZM56.99,7.66h.949v1.6H56.99Zm-8.228,0h.949v1.6h-.949Zm9.019,9.255h-5.7a.479.479,0,0,0,0,.957h5.2l-.507,9.712a1.57,1.57,0,0,1-1.524,1.459h-3.8a1.57,1.57,0,0,1-1.524-1.459l-.507-9.712h.766a.479.479,0,0,0,0-.957H48.921a7.156,7.156,0,0,1-7.1-6.7h23.07A7.156,7.156,0,0,1,57.781,16.915Z" transform="translate(-40.851)"/></g></g></svg>