<svg xmlns="http://www.w3.org/2000/svg" viewBox="0 0 32.443 30.3"><defs><style>.a{fill:#3b3b3b;stroke:#3b3b3b;stroke-width:0.3px;}</style></defs><g transform="translate(1.15 -15.917)"><g transform="translate(-1 16.067)"><path class="a" d="M29.536,32.138H29V20.888a4.8,4.8,0,0,0-4.821-4.821c-2.371,0-4.077,1.758-4.267,4.334a2.648,2.648,0,0,0-2.161,2.63.506.506,0,0,0,.536.536h4.286a.506.506,0,0,0,.536-.536,2.648,2.648,0,0,0-2.12-2.622c.16-1.7,1.183-3.271,3.191-3.271a3.727,3.727,0,0,1,3.75,3.75v11.25H11.805A2.648,2.648,0,0,0,9.179,30a2.8,2.8,0,0,0-2.143-1.071,2.649,2.649,0,0,0-2.357,1.446A3.182,3.182,0,0,0,3.286,30,2.648,2.648,0,0,0,.659,32.138H.607a1.607,1.607,0,1,0,0,3.214h.644L2.7,41.085a3.78,3.78,0,0,0,3.643,2.839h.429l-.7,1.393a.473.473,0,0,0,.214.7.322.322,0,0,0,.214.054.563.563,0,0,0,.482-.268l.937-1.875H22.786l.911,1.821a.515.515,0,0,0,.482.321c.107,0,.161,0,.214-.107a.564.564,0,0,0,.214-.7l-.671-1.342a3.793,3.793,0,0,0,3.51-2.783l1.459-5.786h.63a1.607,1.607,0,1,0,0-3.214ZM21.982,22.5H18.929a1.629,1.629,0,0,1,1.554-1.071A1.56,1.56,0,0,1,21.982,22.5Zm-18.7,8.571a1.8,1.8,0,0,1,1.286.589.485.485,0,0,0,.536.161.519.519,0,0,0,.375-.429A1.659,1.659,0,0,1,7.089,30a1.5,1.5,0,0,1,1.393.8.539.539,0,0,0,.589.268h.161a1.56,1.56,0,0,1,1.5,1.071H1.786A1.561,1.561,0,0,1,3.286,31.067Zm23.2,9.75a2.749,2.749,0,0,1-2.625,2.036H6.393a2.749,2.749,0,0,1-2.625-2.036L2.375,35.353H27.768Zm3.054-6.536H.607a.536.536,0,1,1,0-1.071H29.536a.536.536,0,1,1,0,1.071Z" transform="translate(1 -16.067)"/><path class="a" d="M298.2,153.939a.506.506,0,0,0,.536-.536v-.268a.536.536,0,1,0-1.071,0v.268A.506.506,0,0,0,298.2,153.939Z" transform="translate(-278.917 -144.029)"/><path class="a" d="M298.2,188.395a.537.537,0,0,0,.536-.536v-.589a.536.536,0,1,0-1.071,0v.589A.506.506,0,0,0,298.2,188.395Z" transform="translate(-278.917 -176.02)"/><path class="a" d="M298.2,226.473a.506.506,0,0,0,.536-.536v-.268a.536.536,0,1,0-1.071,0v.268A.506.506,0,0,0,298.2,226.473Z" transform="translate(-278.917 -212.009)"/><path class="a" d="M332.336,153.939a.506.506,0,0,0,.536-.536v-.268a.536.536,0,0,0-1.071,0v.268A.506.506,0,0,0,332.336,153.939Z" transform="translate(-310.907 -144.029)"/><path class="a" d="M331.8,187.858a.506.506,0,0,0,.536.536.537.537,0,0,0,.536-.536v-.589a.536.536,0,0,0-1.071,0Z" transform="translate(-310.907 -176.019)"/><path class="a" d="M331.8,225.937a.536.536,0,0,0,1.071,0v-.268a.536.536,0,0,0-1.071,0Z" transform="translate(-310.907 -212.008)"/><path class="a" d="M366.47,153.939a.506.506,0,0,0,.536-.536v-.268a.536.536,0,1,0-1.071,0v.268A.506.506,0,0,0,366.47,153.939Z" transform="translate(-342.898 -144.029)"/><path class="a" d="M365.933,187.858a.506.506,0,0,0,.536.536.537.537,0,0,0,.536-.536v-.589a.536.536,0,1,0-1.071,0v.589Z" transform="translate(-342.897 -176.019)"/><path class="a" d="M365.933,225.937a.536.536,0,0,0,1.071,0v-.268a.536.536,0,1,0-1.071,0Z" transform="translate(-342.897 -212.008)"/></g></g></svg>