<svg xmlns="http://www.w3.org/2000/svg" viewBox="0 0 30.3 26.3"><defs><style>.a{fill:#fff;stroke:#fff;stroke-width:0.3px;}</style></defs><g transform="translate(0.15 -74.517)"><g transform="translate(0 74.667)"><path class="a" d="M27.5,85.451v-6.96c0-2.107-1.4-3.824-3.125-3.824H5.625C3.9,74.667,2.5,76.383,2.5,78.491v6.96A3.722,3.722,0,0,0,0,89.2V99.9a.706.706,0,0,0,.625.765A.706.706,0,0,0,1.25,99.9V97.608h27.5V99.9a.638.638,0,1,0,1.25,0V89.2A3.722,3.722,0,0,0,27.5,85.451ZM3.75,78.491A2.119,2.119,0,0,1,5.625,76.2h18.75a2.119,2.119,0,0,1,1.875,2.294v6.882H24.53a2.757,2.757,0,0,0,.063-1.321l-.625-3.059a1.988,1.988,0,0,0-1.819-1.737H18.125a2.119,2.119,0,0,0-1.875,2.294v3.059a2.723,2.723,0,0,0,.115.765h-2.73a2.723,2.723,0,0,0,.115-.765V81.549a2.119,2.119,0,0,0-1.875-2.294H7.851a1.989,1.989,0,0,0-1.819,1.737l-.625,3.059a2.757,2.757,0,0,0,.063,1.321H3.75Zm19.516,6.589a.588.588,0,0,1-.492.294H18.125a.706.706,0,0,1-.625-.765V81.549a.706.706,0,0,1,.625-.765h4.024a.663.663,0,0,1,.606.58l.625,3.059A.89.89,0,0,1,23.266,85.079ZM12.5,81.548v3.059a.706.706,0,0,1-.625.765H7.225a.588.588,0,0,1-.492-.294.9.9,0,0,1-.114-.656l.625-3.059a.668.668,0,0,1,.606-.58h4.024A.706.706,0,0,1,12.5,81.548ZM28.75,96.079H1.25V94.549h27.5v1.529Zm0-3.059H1.25V89.2A2.119,2.119,0,0,1,3.125,86.9h23.75A2.119,2.119,0,0,1,28.75,89.2V93.02Z" transform="translate(0 -74.667)"/></g></g></svg>