<svg xmlns="http://www.w3.org/2000/svg" viewBox="0 0 30.3 28.3"><defs><style>.a{fill:#3b3b3b;stroke:#3b3b3b;stroke-width:0.3px;}</style></defs><g transform="translate(0.15 -0.897)"><path class="a" d="M23.673,3.608a7.329,7.329,0,0,0-2.9.216,7.387,7.387,0,0,0-11.545,0,7.356,7.356,0,0,0-2.9-.216A7.132,7.132,0,0,0,0,10.5a7.034,7.034,0,0,0,5.487,6.866,1.845,1.845,0,0,1,1.42,1.6l.433,4.409h0l.248,2.519c.106,1.075,1.51,1.813,2.1,2.077.084.038.152.066.2.084a13.648,13.648,0,0,0,10.222,0c.363-.145,2.18-.934,2.3-2.162l.248-2.519h0l.433-4.409a1.845,1.845,0,0,1,1.42-1.6A7.034,7.034,0,0,0,30,10.5,7.133,7.133,0,0,0,23.673,3.608ZM19.711,27.13a12.576,12.576,0,0,1-9.425,0c-.645-.26-1.621-.863-1.667-1.331l-.064-.65a15.119,15.119,0,0,0,12.89,0l-.064.65C21.335,26.266,20.359,26.869,19.711,27.13ZM24.263,16.4a2.861,2.861,0,0,0-2.2,2.474l-.5,5.09a14.032,14.032,0,0,1-13.123,0l-.5-5.09a2.86,2.86,0,0,0-2.2-2.474,6.029,6.029,0,0,1-4.7-5.885A6.114,6.114,0,0,1,6.46,4.6a6.274,6.274,0,0,1,2.8.282l.374.125.222-.318a6.323,6.323,0,0,1,10.284,0l.222.318.374-.125a6.312,6.312,0,0,1,2.8-.282,6.114,6.114,0,0,1,5.425,5.908A6.028,6.028,0,0,1,24.263,16.4Z"/><path class="a" d="M18.453,35.052a.5.5,0,0,0-.449.559l.517,4.007a.512.512,0,0,0,.513.439.56.56,0,0,0,.065,0,.5.5,0,0,0,.449-.559l-.517-4.007A.517.517,0,0,0,18.453,35.052Z" transform="translate(-8.689 -16.972)"/><path class="a" d="M25.517,37.047a.509.509,0,0,0-.517.5v4.007a.518.518,0,0,0,1.034,0V37.548A.509.509,0,0,0,25.517,37.047Z" transform="translate(-12.069 -17.969)"/><path class="a" d="M38.1,35.052a.517.517,0,0,0-.577.435L37,39.493a.5.5,0,0,0,.449.559.567.567,0,0,0,.065,0,.512.512,0,0,0,.513-.439l.517-4.007A.5.5,0,0,0,38.1,35.052Z" transform="translate(-17.862 -16.972)"/><path class="a" d="M31.517,37.047a.509.509,0,0,0-.517.5v4.007a.518.518,0,0,0,1.034,0V37.548A.509.509,0,0,0,31.517,37.047Z" transform="translate(-14.965 -17.969)"/><path class="a" d="M11.178,11.047c-4.318-.036-5.158,3.364-5.166,3.4a.5.5,0,0,0,.394.6.531.531,0,0,0,.111.012.514.514,0,0,0,.5-.394c.006-.027.626-2.669,4.145-2.611a.531.531,0,0,0,.523-.5A.509.509,0,0,0,11.178,11.047Z" transform="translate(-2.896 -4.991)"/><path class="a" d="M23.2,6.344a.49.49,0,0,0-.093.7.53.53,0,0,0,.726.091,4.042,4.042,0,0,1,4.56.014.528.528,0,0,0,.721-.124.491.491,0,0,0-.128-.7A5.079,5.079,0,0,0,23.2,6.344Z" transform="translate(-11.103 -2.188)"/></g></svg>