<svg xmlns="http://www.w3.org/2000/svg" viewBox="0 0 30 28"><defs><style>.a{fill:#3b3b3b;}</style></defs><g transform="translate(0 -21.4)"><g transform="translate(0 21.4)"><path class="a" d="M195.961,111h-5.155a.62.62,0,0,0,0,1.24h5.155a.62.62,0,0,0,0-1.24Z" transform="translate(-178.555 -105.39)"/><path class="a" d="M23.608,48.16a.62.62,0,0,0,0,1.24h1.922a.611.611,0,0,0,.606-.62V40.2H27.5a.611.611,0,0,0,.606-.62V37.291h1.286a.62.62,0,0,0,0-1.24H24.116l-.643-3.638a1.769,1.769,0,0,0-1.727-1.478h-.71l-.41-7.075A2.586,2.586,0,0,0,18.073,21.4H11.933A2.582,2.582,0,0,0,9.38,23.861l-.41,7.075h-.71a1.76,1.76,0,0,0-1.727,1.478L5.89,36.051H.606a.62.62,0,0,0,0,1.24H1.892v2.285a.611.611,0,0,0,.606.62H3.814V48.78a.611.611,0,0,0,.606.62H6.343a.62.62,0,0,0,0-1.24H5.027V40.2h19.9V48.16ZM21.741,32.176a.554.554,0,0,1,.539.457l.606,3.419H21.337l-.227-3.876Zm-11.149-8.24a1.355,1.355,0,0,1,1.341-1.29h6.135a1.359,1.359,0,0,1,1.341,1.29l.71,12.115H9.882Zm-2.871,8.7a.549.549,0,0,1,.539-.457H8.9l-.227,3.876H7.12ZM3.1,38.956V37.291H26.9v1.665Z" transform="translate(0 -21.4)"/><path class="a" d="M153.735,342.02a.611.611,0,0,0-.606-.62H141.606a.62.62,0,0,0,0,1.24h5.155v2.367h-2.48a.611.611,0,0,0-.606.62v3.112a.606.606,0,1,0,1.212,0v-2.492h1.873v2.492a.606.606,0,1,0,1.212,0v-2.492h1.873v2.492a.606.606,0,1,0,1.212,0v-3.112a.611.611,0,0,0-.606-.62h-2.48V342.64h5.155A.611.611,0,0,0,153.735,342.02Z" transform="translate(-132.367 -321.364)"/></g></g></svg>