<svg xmlns="http://www.w3.org/2000/svg" viewBox="0 0 29.853 30.208"><defs><style>.a{fill:#4ab6b6;stroke:#4ab6b6;stroke-width:0.2px;}</style></defs><path class="a" d="M28.679,3.313l-.033-.073,0,0a1.423,1.423,0,0,0-.224-.34c-.019-.022-.036-.044-.055-.065a1.7,1.7,0,0,0-.315-.255c-.022-.014-.046-.027-.07-.04-.049-.028-.1-.059-.149-.085l-.006.013c-2-.948-6.584.374-8.913,1.159-.163-.075-.326-.152-.491-.226C13.2,1.044,5-1.509,3.828,1.1v0h0L3.8,1.17a14.286,14.286,0,0,0-.243,11.105A5.208,5.208,0,0,0,2.8,13.368C1.173,14,.34,14.77.34,15.67v.08a14.25,14.25,0,1,0,28.5,0v-.08a1.468,1.468,0,0,0-.165-.657A14.289,14.289,0,0,0,28.679,3.313ZM18.164,18.243c-1.152.077-2.353.118-3.574.118q-.594,0-1.181-.013l-.276-.008c-.3-.008-.6-.017-.9-.03l-.289-.014c-.288-.014-.575-.029-.857-.048l-.305-.022c-.27-.019-.538-.04-.8-.063l-.332-.031q-.366-.035-.724-.075l-.371-.043c-.215-.026-.425-.054-.634-.083-.136-.019-.271-.037-.4-.057-.194-.029-.383-.06-.57-.092-.132-.022-.265-.043-.395-.067-.184-.033-.361-.069-.539-.1-.1-.021-.207-.04-.306-.062q-.3-.355-.571-.73c-.064-.088-.121-.18-.183-.27-.115-.165-.23-.33-.336-.5l-.026-.044a9.062,9.062,0,0,0,1.9-.031l.031.011.14-.016a37.461,37.461,0,0,0,9.483-2.839c.382-.162.757-.323,1.116-.484.291-.131.589-.27.891-.414.2-.094.4-.189.592-.284h0l.234-.115.294-.148.415-.209c.232-.119.461-.238.688-.358l.291-.153q.494-.265.968-.533l.074-.042q.433-.246.848-.494c.084-.05.166-.1.249-.151q.322-.2.631-.391l.276-.177c.2-.127.39-.254.578-.382.081-.055.165-.11.244-.165.259-.178.512-.356.753-.533l.694-.511-.027-.018a11.405,11.405,0,0,0,2.214-2.192c0,.007,0,.013.007.019.013.042.022.084.034.126.062.215.121.431.171.648.021.088.037.177.056.265.037.172.072.344.1.517.017.1.031.2.046.3.024.163.045.326.063.489.011.1.021.21.03.315q.02.242.031.485c0,.1.01.209.012.313,0,.166,0,.333,0,.5,0,.1,0,.2-.005.3-.007.186-.021.371-.036.555-.007.078-.01.156-.017.234-.026.263-.059.525-.1.786,0,.027-.011.053-.015.08-.039.233-.084.467-.136.7-.019.086-.042.17-.063.256-.042.172-.085.343-.134.514-.028.1-.06.2-.09.293-.049.156-.1.312-.154.466-.036.1-.074.2-.112.3q-.087.226-.182.449c-.042.1-.084.2-.128.294s-.091.189-.136.283q-.2.414-.427.807l-.06.107-.028.049c-.174.3-.356.583-.549.858A26.781,26.781,0,0,1,18.164,18.243ZM4.309,3.234c1.746,2.481,6.94,5.481,10.911,7.27.655.3,1.316.573,1.976.841-.147.068-.285.135-.434.2-.946.426-1.884.818-2.8,1.173l-.037.014q-.635.244-1.254.464c-.223.078-.434.148-.649.22-.182.061-.364.124-.543.182q-.5.16-.973.3l-.116.034a25.311,25.311,0,0,1-3.755.814c-.181-.068-.349-.134-.5-.2-.241-.343-.464-.7-.675-1.078l-.071-.124c-.21-.382-.406-.777-.581-1.186l-.01-.024A13.1,13.1,0,0,1,4.309,3.234ZM17.925,4.5c.359.162.707.33,1.058.5.288.137.575.274.856.415.2.1.4.2.6.305.276.142.552.283.82.427.218.117.429.236.642.354.233.13.471.259.7.39.429.248.848.5,1.248.75-.326.226-.668.455-1.037.69l-.178.112c-.073.046-.153.093-.227.139-.282.174-.566.347-.862.52-.093.055-.194.11-.289.165q-.483.277-.988.551l-.3.16-.018.01q-.525.279-1.07.552l-.2.1c-.984-.376-1.979-.789-2.961-1.232C8.02,5.937,4.552,2.425,4.927,1.593S10.23,1.031,17.925,4.5ZM3.763,14.222a.974.974,0,0,1,.035-.135,2.357,2.357,0,0,1,.311-.578c.007.013.014.025.021.038q.214.418.458.823c.027.044.051.09.078.134.069.113.144.223.217.334-.642-.037-1.025-.175-1.119-.385h0a.324.324,0,0,1-.014-.149A.654.654,0,0,1,3.763,14.222ZM27.347,3.561a.719.719,0,0,1,.07.042l.043.033a.33.33,0,0,1,.081.093s.006.007.007.01c.191.44-.684,1.617-2.657,3.134q-.3-.2-.616-.39l-.215-.132c-.716-.438-1.475-.871-2.269-1.3l-.03-.016q-.623-.333-1.271-.658C24.613,3.124,26.707,3.222,27.347,3.561ZM2.6,14.764a1.385,1.385,0,0,0,.068.185h0l0,0h0l.03.066c.151.336.318.665.5.988.058.106.124.209.185.314.125.214.251.427.388.634.022.034.04.069.063.1a5.118,5.118,0,0,1-2.113-1.084l-.01-.011a.975.975,0,0,1-.081-.1.728.728,0,0,1-.042-.071.348.348,0,0,1-.014-.036.269.269,0,0,1-.019-.083C1.547,15.5,1.787,15.161,2.6,14.764Zm24.977,2.259a13.045,13.045,0,0,1-25.918.416c.038.023.087.043.127.066q.194.109.408.21.125.059.259.116.261.113.539.215c.066.025.134.048.2.072.246.086.5.166.758.241l.073.021c.339.1.684.185,1.031.265h0l.162.036.032.007q.447.1.929.188h.006l.012,0,.03,0c.064.012.132.022.2.034.266.047.535.092.811.134l.317.045c.251.036.5.071.763.1l.315.037c.27.031.542.061.818.087l.3.028q.43.039.869.071l.3.021q.446.03.9.051l.307.015q.46.02.928.031l.3.009c.407.008.817.014,1.23.014,5.227,0,9.981-.71,12.405-1.852l.141-.066.091-.126a.175.175,0,0,0,.011-.017C27.353,17.349,27.464,17.188,27.573,17.023Z" transform="translate(-0.24 0.108)"/></svg>