<svg xmlns="http://www.w3.org/2000/svg" viewBox="0 0 15.65 30"><defs><style>.a{fill:#3b3b3b;}</style></defs><g transform="translate(-117.372 0.001)"><g transform="translate(117.372 -0.001)"><path class="a" d="M133.015,20.218a2.55,2.55,0,0,0-1.969-2.458c.072-.424.15-.874.235-1.369.587-3.4,1.382-8.046,1.715-11.13a3.771,3.771,0,0,0-1.03-3.156c-1.271-1.317-3.482-1.819-5.295-2l.007-.072c-.072-.007-.652-.039-1.487-.026-.828-.02-1.4.02-1.474.026l.007.072c-1.813.183-4.023.685-5.295,2A3.784,3.784,0,0,0,117.4,5.26c.372,3.475,1.278,9.109,1.845,12.519a2.534,2.534,0,0,0-1.871,2.432,2.492,2.492,0,0,0,.046.443.571.571,0,0,0-.046.209v8.457a.668.668,0,0,0,.554.665.653.653,0,0,0,.75-.646V22.409a3.31,3.31,0,0,0,1.311.385c0,.013-.007.02-.007.033v4.545a.668.668,0,0,0,.554.665.653.653,0,0,0,.75-.646V22.826h7.825v4.545a.668.668,0,0,0,.554.665.653.653,0,0,0,.75-.646V22.826c0-.013-.007-.02-.007-.033a3.319,3.319,0,0,0,1.311-.391v6.925a.668.668,0,0,0,.554.665.653.653,0,0,0,.75-.646V20.87a.763.763,0,0,0-.052-.241A2.983,2.983,0,0,0,133.015,20.218ZM118.69,5.123a2.5,2.5,0,0,1,.672-2.113c1.317-1.369,4.134-1.656,5.829-1.7,1.7.039,4.512.326,5.829,1.7a2.49,2.49,0,0,1,.672,2.113c-.326,3.045-1.122,7.668-1.7,11.046-.091.522-.17.991-.248,1.435h-9.213C119.961,14.213,119.055,8.573,118.69,5.123Zm11.326,16.4h-9.657c-.815,0-1.7-.411-1.7-1.3s.88-1.3,1.7-1.3h9.657c.815,0,1.7.411,1.7,1.3S130.831,21.522,130.016,21.522Z" transform="translate(-117.372 0.001)"/></g></g></svg>