<svg xmlns="http://www.w3.org/2000/svg" viewBox="0 0 22.088 30"><g transform="translate(-0.5)"><path d="M22.489,11.962l-4.231-11A1.51,1.51,0,0,0,16.857,0H6.231a1.51,1.51,0,0,0-1.4.962L.6,11.962A1.5,1.5,0,0,0,2,14h8.044v2h-.5a1.5,1.5,0,0,0-1.5,1.5v11a1.5,1.5,0,0,0,1.5,1.5h4a1.5,1.5,0,0,0,1.5-1.5v-11a1.5,1.5,0,0,0-1.5-1.5h-.5V14h6v5.118a2.012,2.012,0,0,0-1,1.881c0,1.122.658,2,1.5,2s1.5-.878,1.5-2a2.012,2.012,0,0,0-1-1.881V14h1.044a1.5,1.5,0,0,0,1.4-2.038ZM19.544,22c-.2,0-.5-.389-.5-1s.3-1,.5-1,.5.39.5,1S19.748,22,19.544,22Zm-5.5-4.5v11a.5.5,0,0,1-.5.5h-4a.5.5,0,0,1-.5-.5v-11a.5.5,0,0,1,.5-.5h4A.5.5,0,0,1,14.044,17.5Zm-2-1.5h-1V14h1ZM21.5,12.783a.493.493,0,0,1-.412.217H2a.5.5,0,0,1-.5-.5.507.507,0,0,1,.033-.179l4.23-11A.5.5,0,0,1,6.231,1H16.857a.5.5,0,0,1,.467.321l4.23,11A.491.491,0,0,1,21.5,12.783Zm0,0"/><path d="M163.391,460.8h3v1h-3Zm0,0" transform="translate(-153.346 -433.801)"/></g></svg>