<svg xmlns="http://www.w3.org/2000/svg" viewBox="0 0 40 23"><defs><style>.a{fill:#3b3b3b;}</style></defs><g transform="translate(0 -26.003)"><path class="a" d="M39.392,33.092a2.686,2.686,0,0,0-.963-.752A6.712,6.712,0,0,0,31.784,26H22.826A6.936,6.936,0,0,0,20,26.609,6.936,6.936,0,0,0,17.179,26H8.7a6.712,6.712,0,0,0-6.636,6.166,2.673,2.673,0,0,0-1.509,1,2.724,2.724,0,0,0-.466,2.342l1.539,7.7.026.093A2.443,2.443,0,0,0,3.95,44.944H4V49H7.15l1.333-4.059h23.7L33.519,49h3.147V44.926a2.452,2.452,0,0,0,2.124-1.774l1.155-7.792A2.743,2.743,0,0,0,39.392,33.092Zm-7.608-5.736A5.368,5.368,0,0,1,37.076,32.1c-.087.005-.167.028-.253.04-.109.015-.217.027-.323.051a3.648,3.648,0,0,0-.352.106c-.1.034-.2.064-.3.106a3.723,3.723,0,0,0-.333.175c-.087.049-.176.093-.259.149a3.874,3.874,0,0,0-.315.248c-.069.059-.143.112-.208.175a3.814,3.814,0,0,0-.3.336c-.048.06-.1.113-.147.175a3.827,3.827,0,0,0-.27.451c-.025.047-.056.089-.079.137a3.863,3.863,0,0,0-.23.622c0,.012-.009.023-.013.035a3.818,3.818,0,0,0-.119.71L33.4,38.179H20.669V27.8a5.606,5.606,0,0,1,2.157-.445Zm-23.082,0h8.476a5.594,5.594,0,0,1,2.157.445V38.179H6.805l-.4-2.829a3.785,3.785,0,0,0-.149-.635c-.022-.067-.052-.13-.077-.2a3.787,3.787,0,0,0-.171-.392c-.038-.073-.081-.141-.124-.21a3.722,3.722,0,0,0-.215-.321c-.051-.068-.1-.132-.16-.2-.083-.1-.169-.185-.26-.272-.061-.057-.121-.114-.186-.168-.1-.083-.2-.156-.31-.229-.066-.045-.129-.091-.2-.131a3.585,3.585,0,0,0-.385-.19c-.059-.026-.116-.058-.177-.081a3.66,3.66,0,0,0-.593-.171A5.372,5.372,0,0,1,8.7,27.356ZM3.95,43.591a1.105,1.105,0,0,1-1.024-.7L1.387,35.2a1.389,1.389,0,0,1,.231-1.207A1.346,1.346,0,0,1,2.7,33.444a2.431,2.431,0,0,1,2.383,2.1l.873,8.05H3.95Zm2.24,4.059H5.337V44.944H7.078Zm2.738-4.059H7.312l-.357-4.059h26.37l-.178,4.059H8.928Zm26.406,4.059h-.853l-.889-2.706h1.741Zm3.3-12.525L37.5,42.816a1.11,1.11,0,0,1-1.049.775h-1.96l.423-7.878a2.432,2.432,0,0,1,2.4-2.269,1.339,1.339,0,0,1,1.047.5A1.407,1.407,0,0,1,38.633,35.124Z"/><path class="a" d="M14.2,37.216a.659.659,0,0,0,.943,0l.613-.622a1.972,1.972,0,0,0,1.83,0l.613.622a.659.659,0,0,0,.943,0,.683.683,0,0,0,0-.956l-.613-.622a2.138,2.138,0,0,0,0-1.858l.613-.622a.683.683,0,0,0,0-.956.659.659,0,0,0-.943,0l-.613.622a2.052,2.052,0,0,0-1.831,0l-.613-.622a.659.659,0,0,0-.943,0,.683.683,0,0,0,0,.956l.613.622a2.138,2.138,0,0,0,0,1.858l-.613.622A.683.683,0,0,0,14.2,37.216Zm3-3.044a.767.767,0,0,1,0,1.073.74.74,0,0,1-1.057,0,.767.767,0,0,1,0-1.073.741.741,0,0,1,1.057,0Z" transform="translate(-4.67 -1.941)"/><path class="a" d="M38.2,37.216a.659.659,0,0,0,.943,0l.613-.622a1.972,1.972,0,0,0,1.83,0l.613.622a.659.659,0,0,0,.943,0,.683.683,0,0,0,0-.956l-.613-.622a2.138,2.138,0,0,0,0-1.858l.613-.622a.683.683,0,0,0,0-.956.659.659,0,0,0-.943,0l-.613.622a2.052,2.052,0,0,0-1.831,0l-.613-.622a.659.659,0,0,0-.943,0,.683.683,0,0,0,0,.956l.613.622a2.138,2.138,0,0,0,0,1.858l-.613.622A.683.683,0,0,0,38.2,37.216Zm3-3.044a.767.767,0,0,1,0,1.073.74.74,0,0,1-1.057,0,.767.767,0,0,1,0-1.073.741.741,0,0,1,1.057,0Z" transform="translate(-12.672 -1.941)"/></g></svg>