<svg xmlns="http://www.w3.org/2000/svg" viewBox="0 0 15 15"><defs><style>.a{fill:#3b3b3b;}</style></defs><g transform="translate(-0.01)"><g transform="translate(0.01)"><path class="a" d="M565.178,676.02a1.875,1.875,0,1,0,1.875,1.875A1.875,1.875,0,0,0,565.178,676.02Z" transform="translate(-553.929 -664.77)"/><path class="a" d="M283.5,676.02a1.875,1.875,0,1,0,1.875,1.875A1.875,1.875,0,0,0,283.5,676.02Z" transform="translate(-276.942 -664.77)"/><path class="a" d="M14.835,3.2a.942.942,0,0,0-.763-.389H4.435L3.711.64A.936.936,0,0,0,2.822,0H.947a.938.938,0,0,0,0,1.875h1.2l2.6,7.8a.939.939,0,0,0,.89.641H12.2a.937.937,0,0,0,.89-.641l1.875-5.625A.942.942,0,0,0,14.835,3.2Z" transform="translate(-0.01)"/></g></g></svg>