<svg xmlns="http://www.w3.org/2000/svg" viewBox="0 0 30 30"><defs><style>.a{fill:#3b3b3b;}</style></defs><path class="a" d="M206.541,177.125a2.185,2.185,0,0,0,1.259-.929,2.184,2.184,0,0,0,1.259.929,1.421,1.421,0,0,0,.286.028,1.843,1.843,0,0,0,1.309-.625.5.5,0,0,0-.707-.707.813.813,0,0,1-.685.324c-.4-.083-.8-.715-.961-1.076a1.59,1.59,0,0,0,1-1.394c0-.548-.561-.875-1.5-.875s-1.5.327-1.5.875a1.589,1.589,0,0,0,1,1.394c-.164.362-.557.994-.961,1.076a.816.816,0,0,1-.685-.324.5.5,0,0,0-.707.707A1.721,1.721,0,0,0,206.541,177.125Zm1.713-3.278a.478.478,0,0,1-.908,0A2.824,2.824,0,0,1,208.254,173.847Z" transform="translate(-192.8 -162.675)"/><path class="a" d="M364.959,35.292a.5.5,0,0,1,0,.707.5.5,0,0,0,.707.708,1.5,1.5,0,0,0-2.121-2.122.5.5,0,1,0,.707.707A.5.5,0,0,1,364.959,35.292Z" transform="translate(-342.105 -32.145)"/><path class="a" d="M299.417,112.433a.75.75,0,1,0-.75-.75A.751.751,0,0,0,299.417,112.433Z" transform="translate(-281.167 -104.433)"/><path class="a" d="M188.483,112.433a.75.75,0,1,0-.75-.75A.751.751,0,0,0,188.483,112.433Z" transform="translate(-176.733 -104.433)"/><path class="a" d="M103.194,37.071a.5.5,0,0,0,.354-.854.5.5,0,0,1,0-.707.511.511,0,0,1,.707,0,.5.5,0,0,0,.708-.707,1.537,1.537,0,0,0-2.122,0,1.5,1.5,0,0,0,0,2.122A.5.5,0,0,0,103.194,37.071Z" transform="translate(-96.401 -32.364)"/><path class="a" d="M29.212,271.15c-1.656-1.4-5.376-.832-5.794-.762a.5.5,0,1,0,.164.986c1.011-.168,3.875-.4,4.984.539a1.182,1.182,0,0,1,.434.968.677.677,0,0,1-.28.564c-1.412,1.146-6.7.35-8.617-.053a.5.5,0,0,0-.458.842,3.653,3.653,0,0,1,.732,1.169,3.627,3.627,0,0,0-.378-.021,4.277,4.277,0,0,0-4,4.5,4.981,4.981,0,0,0,.169,1.286,2.829,2.829,0,0,1-1.169.214,2.64,2.64,0,0,1-1.166-.223A4.993,4.993,0,0,0,14,279.881a4.277,4.277,0,0,0-4-4.5,3.627,3.627,0,0,0-.378.021,3.654,3.654,0,0,1,.731-1.168.5.5,0,0,0-.457-.843c-1.917.4-7.206,1.2-8.617.053a.677.677,0,0,1-.28-.564,1.182,1.182,0,0,1,.434-.967c1.105-.937,3.973-.707,4.984-.54a.5.5,0,0,0,.164-.986c-.419-.07-4.137-.642-5.794.762A2.2,2.2,0,0,0,0,272.881a1.681,1.681,0,0,0,.65,1.341c1.593,1.292,6.024.749,8.234.377a3.406,3.406,0,0,0-.358,1.1A4.528,4.528,0,0,0,6,279.881a4.277,4.277,0,0,0,4,4.5,3.953,3.953,0,0,0,3.479-2.289,3.7,3.7,0,0,0,1.521.289,3.876,3.876,0,0,0,1.525-.279A3.951,3.951,0,0,0,20,284.381a4.277,4.277,0,0,0,4-4.5,4.528,4.528,0,0,0-2.527-4.18,3.407,3.407,0,0,0-.357-1.1c2.21.372,6.642.916,8.234-.377a1.681,1.681,0,0,0,.65-1.341A2.2,2.2,0,0,0,29.212,271.15ZM10,283.381a3.542,3.542,0,0,1,0-7,3.542,3.542,0,0,1,0,7Zm13-3.5a3.283,3.283,0,0,1-3,3.5,3.03,3.03,0,0,1-2.751-2.106.485.485,0,0,0-.036-.1A3.976,3.976,0,0,1,17,279.881a3.283,3.283,0,0,1,3-3.5A3.283,3.283,0,0,1,23,279.881Z" transform="translate(0 -254.381)"/><path class="a" d="M307.2,411.6a2,2,0,1,0,2-2A2,2,0,0,0,307.2,411.6Zm3,0a1,1,0,1,1-1-1A1,1,0,0,1,310.2,411.6Z" transform="translate(-289.2 -385.6)"/><path class="a" d="M71.037,6.923A11.094,11.094,0,0,0,70.267,11c0,3.976,3.092,8,9,8s9-4.025,9-8A10.912,10.912,0,0,0,87.5,6.923a3.5,3.5,0,1,0-3.961-4.77A8.313,8.313,0,0,0,79.267,1a8.227,8.227,0,0,0-4.293,1.167A3.389,3.389,0,0,0,71.767,0a3.5,3.5,0,0,0-.73,6.923ZM71.767,1a2.4,2.4,0,0,1,2.35,1.761,9.226,9.226,0,0,0-1.752,1.792.5.5,0,0,0,.8.6,8.139,8.139,0,0,1,1.8-1.788A7.235,7.235,0,0,1,79.267,2a7.467,7.467,0,0,1,6.1,3.152.5.5,0,0,0,.8-.6,9.231,9.231,0,0,0-1.778-1.823A2.5,2.5,0,1,1,86.767,6a.5.5,0,0,0-.451.716A9.824,9.824,0,0,1,87.267,11c0,3.479-2.748,7-8,7s-8-3.521-8-7a9.994,9.994,0,0,1,.951-4.284A.5.5,0,0,0,71.767,6a2.5,2.5,0,1,1,0-5Z" transform="translate(-64.267)"/><path class="a" d="M175.667,153.566c2.757,0,5-1.794,5-4a5.028,5.028,0,0,0-10,0C170.667,151.772,172.91,153.566,175.667,153.566Zm0-7.5a3.972,3.972,0,0,1,4,3.5c0,1.655-1.794,3-4,3s-4-1.345-4-3A3.972,3.972,0,0,1,175.667,146.066Z" transform="translate(-160.667 -136.566)"/><path class="a" d="M138.534,409.6a2,2,0,1,0,2,2A2,2,0,0,0,138.534,409.6Zm0,3a1,1,0,1,1,1-1A1,1,0,0,1,138.534,412.6Z" transform="translate(-128.534 -385.6)"/></svg>