<svg xmlns="http://www.w3.org/2000/svg" viewBox="0 0 33.556 30"><g transform="translate(0 -27.131)"><g transform="translate(0 27.131)"><g transform="translate(0 0)"><path d="M15,27.131H3.367a.459.459,0,0,0-.459.459V43.256a1.913,1.913,0,1,0-1,3.546h.425a4.018,4.018,0,0,0-.976,2.627.459.459,0,0,0,.917,0,3.1,3.1,0,0,1,.63-1.876v9.12a.459.459,0,0,0,.459.459H10.5a.459.459,0,0,0,.459-.459V51.692a7.6,7.6,0,0,0-2.079-5.22,12.11,12.11,0,0,0,6.576-10.762V27.59A.459.459,0,0,0,15,27.131ZM2.908,45.884h-1a1,1,0,1,1,1-1Zm7.137,5.808v4.522H7.368V53.387a.459.459,0,1,0-.917,0v2.827h-.86V52.175a.459.459,0,0,0-.917,0v4.039H3.826V46.8H7.914A6.681,6.681,0,0,1,10.045,51.692Zm4.5-15.983A11.191,11.191,0,0,1,7.989,45.884H3.826V28.048h.848V32.76a.459.459,0,1,0,.917,0V28.048H9.279v3.985a.459.459,0,0,0,.917,0V28.048h1.022v6.974a.459.459,0,0,0,.917,0V28.048h2.407v7.661Z" transform="translate(0 -27.131)"/><path d="M291.58,44.888a1.912,1.912,0,0,0-2.908-1.633V27.59a.459.459,0,0,0-.459-.459H276.58a.459.459,0,0,0-.459.459v8.119A12.111,12.111,0,0,0,282.7,46.471a7.6,7.6,0,0,0-2.079,5.22v4.981a.459.459,0,0,0,.459.459h7.137a.459.459,0,0,0,.459-.459v-9.12a3.1,3.1,0,0,1,.63,1.876.459.459,0,0,0,.917,0,4.018,4.018,0,0,0-.976-2.627h.425A1.915,1.915,0,0,0,291.58,44.888Zm-14.542-9.179V28.048h2.407v6.974a.459.459,0,0,0,.917,0V28.048h1.022v3.985a.459.459,0,1,0,.917,0V28.048h3.688V32.76a.459.459,0,1,0,.917,0V28.048h.848V45.884h-4.163A11.191,11.191,0,0,1,277.038,35.709Zm10.717,20.5h-.848V52.175a.459.459,0,1,0-.917,0v4.039h-.86V53.387a.459.459,0,1,0-.917,0v2.827h-2.677V51.692a6.681,6.681,0,0,1,2.132-4.89h4.088Zm.917-10.33v-1a1,1,0,1,1,1,1Z" transform="translate(-258.024 -27.131)"/></g></g></g></svg>